PathFileType  4	(X/Y/Z) C:\Users\antoi\Documents\MyRepositories\mobilecap\ResultsAnalysis
DataRate	CameraRate	NumFrames	NumMarkers	Units	OrigDataRate	OrigDataStartFrame	OrigNumFrames
100.0	100.0	4	51	mm	100.0	99	131
Frame#	Time	r_knee			r_shank_antsup			r_ankle			r_calc			r_5meta			r_toe			L_knee			L_shank_antsup			L_ankle			L_calc			L_5meta			L_toe			r_sh2			r_sh3			r_sh4			L_sh2			L_sh3			r_thigh1			r_thigh2			r_thigh3			r_thigh4			r_thigh5			L_thigh1			L_thigh2			L_thigh3			L_thigh4			r.ASIS			r.PSIS			L.ASIS			L.PSIS			C7			R_Shoulder			L_Shoulder			R_Sternum			L_Sternum			R_humerus			R_elbow_med			R_elbow_lat			R_forearm			R_wrist_radius			R_wrist_ulna			L_humerus			L_elbow_med			L_elbow_lat			L_forearm			L_wrist_radius			L_wrist_ulna			R_HJC			L_HJC			R_HJC_reg			L_HJC_reg			
		X1	Y1	Z1	X2	Y2	Z2	X3	Y3	Z3	X4	Y4	Z4	X5	Y5	Z5	X6	Y6	Z6	X7	Y7	Z7	X8	Y8	Z8	X9	Y9	Z9	X10	Y10	Z10	X11	Y11	Z11	X12	Y12	Z12	X13	Y13	Z13	X14	Y14	Z14	X15	Y15	Z15	X16	Y16	Z16	X17	Y17	Z17	X18	Y18	Z18	X19	Y19	Z19	X20	Y20	Z20	X21	Y21	Z21	X22	Y22	Z22	X23	Y23	Z23	X24	Y24	Z24	X25	Y25	Z25	X26	Y26	Z26	X27	Y27	Z27	X28	Y28	Z28	X29	Y29	Z29	X30	Y30	Z30	X31	Y31	Z31	X32	Y32	Z32	X33	Y33	Z33	X34	Y34	Z34	X35	Y35	Z35	X36	Y36	Z36	X37	Y37	Z37	X38	Y38	Z38	X39	Y39	Z39	X40	Y40	Z40	X41	Y41	Z41	X42	Y42	Z42	X43	Y43	Z43	X44	Y44	Z44	X45	Y45	Z45	X46	Y46	Z46	X47	Y47	Z47	X48	Y48	Z48	X49	Y49	Z49	X50	Y50	Z50	X51	Y51	Z51	

99	0.98000000	1220.49496	512.66479	-103.60914	1278.42896	435.75452	-108.13686	1293.85836	107.04955	-122.81258	1250.71963	57.64689	-178.57392	1420.97421	89.91693	-76.28960	1444.87762	134.98282	-125.69838	963.81633	492.85462	-365.58743	978.78422	403.33543	-347.26331	840.63111	98.11418	-318.86378	762.43291	58.61731	-272.94558	941.80397	37.82255	-353.43741	988.95108	62.10737	-294.40937	1300.04840	324.72201	-111.57428	1213.47205	420.58724	-70.43289	1229.40398	307.05723	-70.07040	903.80579	430.56239	-391.87927	871.62512	314.88089	-390.06518	1154.17890	785.37453	-85.60805	1205.16927	688.58708	-100.52698	1174.17076	639.93361	-61.94354	1060.88230	730.78129	-52.77827	1118.82275	633.24911	-74.47626	1087.65316	724.65400	-391.02798	1073.56827	589.48403	-357.42146	988.01964	724.37250	-436.81986	970.53629	597.90396	-394.70619	1125.16118	960.61607	-126.71989	918.87586	980.30263	-198.89864	1121.31219	954.95446	-379.30994	919.67097	987.45169	-292.07187	959.69990	1446.15231	-260.41746	1006.51131	1416.21971	-89.91560	1051.73541	1417.41917	-401.36527	1083.11828	1372.91955	-222.32265	1084.39017	1374.51206	-269.05832	1015.04570	1285.68123	-28.27660	926.34323	1094.20480	-94.10328	914.92408	1106.93910	-26.69126	945.19553	1037.39584	11.85489	958.76930	862.50449	1.02487	919.17955	876.00611	28.84981	1118.10639	1300.28491	-452.62090	1115.53404	1088.37583	-430.47917	1150.36145	1113.70955	-497.39783	1224.65503	1096.38063	-484.24796	1358.17355	992.18773	-425.91544	1341.79993	974.23247	-470.52786	1046.86460	868.83828	-147.20284	1042.65450	868.16447	-336.71280	1057.41737	868.66525	-169.48594	1058.84162	881.41820	-335.73070	
100	0.99000000	1231.31857	509.13314	-103.46987	1291.61381	434.66102	-108.09099	1321.02161	106.60334	-124.61890	1279.40177	55.67356	-180.13167	1449.30872	94.56699	-79.08212	1470.83908	140.82645	-128.45120	969.66409	492.32177	-365.71814	983.40222	402.51966	-347.57250	841.15407	98.78179	-318.83741	762.81783	59.80267	-272.92149	941.84350	37.66719	-353.58498	989.24463	61.78099	-294.67381	1317.66990	324.53785	-112.19309	1227.41518	416.88652	-70.48025	1247.69684	303.89690	-70.95554	908.72610	430.94664	-391.81392	874.88981	315.68084	-390.08075	1166.53078	782.28915	-86.67783	1216.74032	685.07521	-101.66088	1186.14065	636.89511	-62.41289	1073.42679	728.42808	-52.30438	1130.47166	630.36273	-74.22413	1097.06752	722.49160	-391.60898	1081.24610	587.38372	-358.18873	997.11694	723.60633	-436.69681	978.01981	597.36719	-394.46052	1138.28647	958.13349	-126.87158	931.73888	977.48872	-197.61979	1133.29136	952.77589	-379.37466	931.77545	985.30988	-290.67682	972.62920	1443.75706	-260.18449	1019.49380	1413.87600	-89.70004	1064.73191	1414.66986	-401.11562	1095.75115	1370.01653	-222.12471	1097.23414	1371.74960	-268.87200	1027.10869	1283.38339	-27.97401	936.95494	1092.55410	-93.92188	925.27362	1105.48736	-26.59221	954.70557	1035.77127	12.23972	967.07106	860.70587	1.76477	927.56801	874.57496	29.24571	1131.70257	1298.19774	-452.14873	1131.88386	1086.48273	-429.81216	1166.39855	1112.31750	-496.79839	1241.06968	1096.79657	-483.04920	1376.63118	996.46850	-422.80191	1361.17986	977.95352	-467.48968	1060.06304	866.24524	-146.95427	1054.72286	865.95529	-336.43534	1070.96589	865.48736	-169.75884	1071.03559	879.44574	-335.86468	
101	1.00000000	1242.16979	505.73179	-103.34868	1304.53263	433.30367	-108.07974	1345.75523	106.22055	-126.74242	1305.58408	54.04478	-182.22226	1474.83687	98.49699	-81.99012	1494.31520	145.76212	-131.12985	975.97395	491.75124	-365.81182	988.52769	401.62399	-347.80652	841.76515	99.59311	-318.85888	763.25359	61.23057	-272.90482	941.86953	37.50557	-353.72091	989.55409	61.41650	-294.95149	1334.33615	324.09570	-112.91613	1241.06408	413.32159	-70.67033	1264.95223	300.87244	-72.04628	914.18657	431.34906	-391.66987	878.47759	316.57111	-389.98011	1179.05572	779.36278	-87.48902	1228.54897	681.72356	-102.45837	1198.14092	633.98742	-62.75201	1086.02602	726.18902	-51.96147	1142.22158	627.59995	-74.01312	1106.71812	720.30823	-392.26376	1089.25220	585.23505	-359.09300	1006.38340	722.81614	-436.41781	985.84328	596.76898	-394.10342	1151.49452	955.60324	-126.97227	944.71534	974.49917	-196.31874	1145.41095	950.59695	-379.48806	944.04585	982.97630	-289.26384	985.59261	1441.28650	-259.85322	1032.54205	1411.45421	-89.39062	1077.75667	1411.85369	-400.80580	1108.49644	1367.07883	-221.84652	1110.12472	1368.92862	-268.60882	1039.35919	1280.97827	-27.61244	947.81227	1090.79227	-93.61896	935.96134	1103.89526	-26.35977	964.62444	1034.03518	12.70728	975.77429	858.78732	2.54265	936.43901	873.03028	29.73524	1145.23524	1295.94751	-451.59061	1148.01240	1084.40648	-428.84973	1182.07664	1110.67495	-496.14174	1257.10464	1096.92964	-481.84038	1394.44351	1000.32358	-419.85684	1379.90243	981.29994	-464.56836	1073.45208	863.55037	-146.71561	1066.99913	863.67420	-336.16199	1084.63051	862.23358	-170.03259	1083.43569	877.37622	-336.06002	
102	1.01000000	1253.22098	502.54371	-103.32659	1317.31588	431.67172	-108.19050	1367.87066	105.65587	-129.13028	1329.08541	52.53426	-184.83855	1497.42649	101.30897	-84.95345	1515.27711	149.45866	-133.66123	982.82671	491.12766	-365.85227	994.20329	400.62449	-347.96803	842.50357	100.56853	-318.93546	763.75154	62.95018	-272.89949	941.89858	37.33986	-353.84673	989.89521	61.00916	-295.24029	1350.08021	323.29486	-113.79200	1254.47329	409.90915	-71.03664	1281.18126	297.94832	-73.32572	920.24818	431.75330	-391.43513	882.42015	317.56179	-389.74579	1191.79175	776.61929	-87.96882	1240.66051	678.57027	-102.91377	1210.24152	631.21272	-62.92939	1098.71412	724.03927	-51.72520	1154.17435	624.97864	-73.84653	1116.63589	718.11340	-392.90989	1097.66711	583.07158	-360.04382	1015.89095	722.00529	-435.96807	994.08973	596.09949	-393.62970	1164.77930	953.07918	-126.98153	957.78920	971.41784	-195.04856	1157.68159	948.40984	-379.65674	956.52887	980.45364	-287.86971	998.59187	1438.77543	-259.41981	1045.65096	1408.98072	-88.98180	1090.80694	1409.01929	-400.43225	1121.38593	1364.16385	-221.48118	1123.08139	1366.09384	-268.26310	1051.77643	1278.48624	-27.17335	958.94443	1088.92314	-93.19563	946.99505	1102.17454	-25.99363	974.97381	1032.19364	13.25973	984.92283	856.77018	3.35692	945.79483	871.37506	30.32013	1158.70775	1293.58063	-450.95143	1163.88723	1082.17544	-427.57869	1197.37268	1108.81629	-495.42345	1272.73916	1096.78643	-480.61847	1411.61969	1003.76190	-417.10250	1397.96909	984.24942	-461.77654	1087.01004	860.81773	-146.46163	1079.50112	861.32360	-335.86972	1098.32421	859.01054	-170.24085	1096.06655	875.17802	-336.29375	
